<?xml version="1.0" encoding="UTF-8" standalone="no"?> <svg xmlns="http://www.w3.org/2000/svg" viewBox="0 0 32 32"><defs><style>.cls-1{fill:#8fa5a5;}.cls-2{fill:#7b8c8c;}.cls-3{fill:#2d4a60;}.cls-4{fill:#009ae0;}</style></defs><title>Monitor</title><g id="Monitor"><path class="cls-1" d="M22,28H10a1,1,0,0,1,0-2,2,2,0,0,0,2-2V23a1,1,0,0,1,1-1h6a1,1,0,0,1,1,1v1a2,2,0,0,0,2,2,1,1,0,0,1,0,2Z"/><path class="cls-2" d="M25,28H7a1,1,0,0,1,0-2H25a1,1,0,0,1,0,2Z"/><path class="cls-3" d="M27,24H5a3,3,0,0,1-3-3V7A3,3,0,0,1,5,4H27a3,3,0,0,1,3,3V21A3,3,0,0,1,27,24Z"/><rect class="cls-4" x="5" y="7" width="22" height="14" rx="1"/></g></svg>