<?xml version="1.0" encoding="iso-8859-1"?>
<!-- Generator: Adobe Illustrator 24.3.0, SVG Export Plug-In . SVG Version: 6.00 Build 0)  -->
<svg version="1.1" xmlns="http://www.w3.org/2000/svg" xmlns:xlink="http://www.w3.org/1999/xlink" x="0px" y="0px"
	 viewBox="0 0 512 512" style="enable-background:new 0 0 512 512;" xml:space="preserve">
<g id="_x32_49_x2C__App_Development_x2C__Arrows_x2C__Div_x2C__Mobile">
	<g>
		<g id="XMLID_243_">
			<g>
				<g>
					<polygon style="fill:#FFFFFF;" points="490,160 490,260 400,260 330,260 330,160 400,160 					"/>
				</g>
				<g>
					<polygon style="fill:#FFFFFF;" points="190,260 190,360 120,360 30,360 30,260 120,260 					"/>
				</g>
				<g>
					<g>
						<polygon style="fill:#C2E3F7;" points="400,260 400,420 280,420 120,420 120,360 190,360 190,260 120,260 120,100 265,100 
							400,100 400,160 330,160 330,260 						"/>
					</g>
				</g>
				<g>
					<path style="fill:#FBFFFF;" d="M400,420v51c0,10.49-8.51,19-19,19H250v-20h30v-30v-20H400z"/>
				</g>
				<g>
					<path style="fill:#FBFFFF;" d="M250,440v30v20H139c-10.49,0-19-8.51-19-19v-51h160v20H250z"/>
				</g>
				<g>
					<g>
						<path style="fill:#C2E3F7;" d="M265,80v20H120V49c0-10.49,8.51-19,19-19h126v20c-8.28,0-15,6.72-15,15
							C250,73.279,256.72,80,265,80z"/>
					</g>
				</g>
				<g>
					<path style="fill:#FBFFFF;" d="M400,49v51H265V80c8.28,0,15-6.72,15-15s-6.72-15-15-15V30h116C391.49,30,400,38.51,400,49z"/>
				</g>
				<g>
					<g>
						<rect x="250" y="440" style="fill:#0B93E2;" width="30" height="30"/>
					</g>
				</g>
				<g>
					<g>
						<circle style="fill:#0B93E2;" cx="265" cy="65" r="15"/>
					</g>
				</g>
			</g>
			<g>
				<g>
					<g>
						<path style="fill:#0B93E2;" d="M381,500H139c-15.991,0-29-13.01-29-29v-51c0-5.522,4.477-10,10-10c5.523,0,10,4.478,10,10v51
							c0,4.963,4.038,9,9,9h242c4.963,0,9-4.037,9-9v-51c0-5.522,4.477-10,10-10c5.522,0,10,4.478,10,10v51
							C410,486.99,396.99,500,381,500z"/>
					</g>
					<g>
						<path style="fill:#0B93E2;" d="M400,110c-5.523,0-10-4.477-10-10V49c0-4.962-4.037-9-9-9H139c-4.962,0-9,4.038-9,9v51
							c0,5.523-4.477,10-10,10c-5.523,0-10-4.477-10-10V49c0-15.991,13.009-29,29-29h242c15.99,0,29,13.009,29,29v51
							C410,105.523,405.522,110,400,110z"/>
					</g>
					<g>
						<path style="fill:#0B93E2;" d="M400,430H120c-5.523,0-10-4.478-10-10v-60c0-5.522,4.477-10,10-10c5.523,0,10,4.478,10,10v50
							h260V260c0-5.523,4.477-10,10-10c5.522,0,10,4.477,10,10v160C410,425.522,405.522,430,400,430z"/>
					</g>
					<g>
						<path style="fill:#0B93E2;" d="M120,270c-5.523,0-10-4.478-10-10V100c0-5.523,4.477-10,10-10h280c5.522,0,10,4.477,10,10v60
							c0,5.523-4.478,10-10,10c-5.523,0-10-4.477-10-10v-50H130v150C130,265.522,125.523,270,120,270z"/>
					</g>
					<g>
						<path style="fill:#0B93E2;" d="M490,270H330c-5.523,0-10-4.478-10-10V160c0-5.523,4.477-10,10-10h160c5.522,0,10,4.477,10,10
							v100C500,265.522,495.522,270,490,270z M340,250h140v-80H340V250z"/>
					</g>
					<g>
						<path style="fill:#0B93E2;" d="M190,370H30c-5.523,0-10-4.478-10-10V260c0-5.523,4.477-10,10-10h160c5.523,0,10,4.477,10,10
							v100C200,365.522,195.523,370,190,370z M40,350h140v-80H40V350z"/>
					</g>
					<g>
						<path style="fill:#0B93E2;" d="M379.991,233.331c-1.906,0-3.832-0.544-5.537-1.68l-20-13.33
							C351.672,216.467,350,213.344,350,210c0-3.344,1.672-6.467,4.454-8.321l20-13.33c4.593-3.061,10.804-1.822,13.867,2.775
							c3.063,4.596,1.82,10.804-2.775,13.867L378.031,210l7.515,5.009c4.596,3.063,5.838,9.271,2.775,13.867
							C386.395,231.767,383.223,233.331,379.991,233.331z"/>
					</g>
					<g>
						<path style="fill:#0B93E2;" d="M440.009,233.331c-3.232,0-6.403-1.564-8.33-4.455c-3.063-4.596-1.82-10.804,2.775-13.867
							l7.515-5.009l-7.515-5.009c-4.596-3.063-5.838-9.271-2.775-13.867c3.064-4.596,9.273-5.836,13.867-2.775l20,13.33
							c2.782,1.855,4.454,4.978,4.454,8.321c0,3.344-1.672,6.467-4.454,8.321l-20,13.33
							C443.842,232.787,441.915,233.331,440.009,233.331z"/>
					</g>
					<g>
						<path style="fill:#0B93E2;" d="M399.992,240.002c-1.503,0-3.028-0.34-4.464-1.058c-4.94-2.47-6.942-8.477-4.473-13.417l20-40
							c2.47-4.939,8.476-6.942,13.416-4.472c4.94,2.47,6.942,8.477,4.473,13.417l-20,40
							C407.192,237.976,403.66,240.002,399.992,240.002z"/>
					</g>
					<g>
						<path style="fill:#0B93E2;" d="M79.991,333.331c-1.906,0-3.832-0.544-5.537-1.68l-20-13.33C51.671,316.467,50,313.344,50,310
							c0-3.344,1.671-6.467,4.454-8.321l20-13.33c4.595-3.063,10.804-1.821,13.867,2.775c3.063,4.596,1.82,10.804-2.775,13.867
							L78.031,310l7.515,5.009c4.596,3.064,5.838,9.272,2.775,13.867C86.395,331.767,83.222,333.331,79.991,333.331z"/>
					</g>
					<g>
						<path style="fill:#0B93E2;" d="M140.009,333.331c-3.232,0-6.403-1.563-8.331-4.455c-3.063-4.596-1.82-10.804,2.775-13.867
							l7.515-5.009l-7.515-5.009c-4.596-3.064-5.838-9.272-2.775-13.867s9.273-5.837,13.867-2.775l20,13.33
							c2.783,1.854,4.454,4.978,4.454,8.321c0,3.344-1.671,6.467-4.454,8.321l-20,13.33
							C143.841,332.787,141.915,333.331,140.009,333.331z"/>
					</g>
					<g>
						<path style="fill:#0B93E2;" d="M99.992,340.002c-1.503,0-3.029-0.34-4.464-1.058c-4.94-2.47-6.942-8.477-4.472-13.416l20-40
							c2.469-4.941,8.476-6.943,13.417-4.473c4.94,2.47,6.942,8.477,4.472,13.416l-20,40
							C107.192,337.977,103.66,340.002,99.992,340.002z"/>
					</g>
					<g>
						<path style="fill:#0B93E2;" d="M270,170h-90c-5.523,0-10-4.477-10-10s4.477-10,10-10h90c5.522,0,10,4.477,10,10
							S275.522,170,270,170z"/>
					</g>
					<g>
						<path style="fill:#0B93E2;" d="M250,210h-70c-5.523,0-10-4.477-10-10s4.477-10,10-10h70c5.523,0,10,4.477,10,10
							S255.523,210,250,210z"/>
					</g>
					<g>
						<path style="fill:#0B93E2;" d="M340,330h-90c-5.523,0-10-4.478-10-10s4.477-10,10-10h90c5.522,0,10,4.478,10,10
							S345.522,330,340,330z"/>
					</g>
					<g>
						<path style="fill:#0B93E2;" d="M320,370h-70c-5.523,0-10-4.478-10-10s4.477-10,10-10h70c5.522,0,10,4.478,10,10
							S325.522,370,320,370z"/>
					</g>
				</g>
			</g>
		</g>
	</g>
</g>
<g id="Layer_1">
</g>
</svg>
